<?xml version="1.0" encoding="utf-8"?>
<!-- Generator: Adobe Illustrator 22.0.1, SVG Export Plug-In . SVG Version: 6.00 Build 0)  -->
<svg version="1.1" id="Layer_1" xmlns="http://www.w3.org/2000/svg" xmlns:xlink="http://www.w3.org/1999/xlink" x="0px" y="0px"
	 viewBox="0 0 555.9 559.2" style="enable-background:new 0 0 555.9 559.2;" xml:space="preserve">
<style type="text/css">
	.st0{fill:#383536;}
	.st1{fill:#383536;stroke:#383536;stroke-width:6;stroke-miterlimit:10;}
</style>
<g>
	<g>
		<g>
			<path class="st0" d="M247.2,417.2h45.3v16.6h-63.3v-26.3c-20.1,20.1-44,31-71.6,32.6c-3.6,0.3-7.3,0.5-11.2,0.5
				c-28.9,0-53.1-8.4-72.6-25.3c-15.9-14-23.9-31-23.9-51.1c0-27,12.2-47.9,36.5-62.8c15.6-10.1,33-15.1,52.1-15.1
				c27.3,0,57.5,3.2,90.6,11.7v-7.3c0-14-9.3-26.3-27.8-37c-16.6-9.7-35.2-14.6-56-14.6c-20.5,0-46.4,7-77.9,20.9l-6.8-16.6
				l28.7-11.2c23.1-7.5,41.7-11.2,56-11.2c31.8,0,58.1,7.6,78.9,24.8c15.3,12.7,22.9,28.3,22.9,44.8V417.2z M229.2,317.3
				c-34.1-8.8-64.3-13.2-90.6-13.2c-24.4,0-43.5,8.3-57.5,24.8C72.4,339.4,70,351.1,70,364.1c0,20.8,9.2,34.9,31.6,46.2
				c13.6,6.8,28.6,11.2,44.8,11.2c26,0,47.6-6.8,64.8-22.4c5.5-4.9,11.5-11.2,18-19V317.3z"/>
		</g>
	</g>
	<g>
		<g>
			<path class="st0" d="M285.7,416.2c0-0.7,0.2-87,0.5-261.1h-39.5v-16.6h57v46.3c17.9-25.3,42.4-40.4,73.6-45.3
				c5.8-1,11.7-1.5,17.5-1.5c33.4,0,61,12,82.8,36.1c17.9,19.5,26.8,42.2,26.8,68.2c0,31.5-12.3,57.6-37,78.4
				c-20.5,17.2-44.5,25.8-72.1,25.8c-33.5,0-61.2-12.2-83.3-36.5c-2.9-3.2-5.7-6.7-8.3-10.2v116.4h59.9v17.6H247.2v-17.6H285.7z
				 M394.8,327.5c28.6,0,51.1-9.5,69.6-30.7c14-15.9,21.9-34.1,21.9-54.6c0-27-11-49-33.1-66.3c-16.6-13.3-35.9-20-58-20
				c-28.3,0-51.6,10.2-70.1,30.7c-14.3,15.6-21.4,34.1-21.4,55.5c0,28.9,12.7,51.8,36.1,68.7C356.1,322.7,373.7,327.5,394.8,327.5z"
				/>
		</g>
	</g>
</g>
<polygon class="st1" points="10.6,12.4 10.6,77.1 24.6,77.1 24.6,26.4 531.3,26.4 531.3,533.1 24.6,533.1 24.6,218 10.6,218 
	10.6,546.1 544.2,546.1 544.2,12.4 "/>
</svg>
