<?xml version="1.0" encoding="utf-8"?>
<!-- Generator: Adobe Illustrator 22.0.1, SVG Export Plug-In . SVG Version: 6.00 Build 0)  -->
<svg version="1.1" id="Layer_1" xmlns="http://www.w3.org/2000/svg" xmlns:xlink="http://www.w3.org/1999/xlink" x="0px" y="0px"
	 viewBox="0 0 467.6 319.4" style="enable-background:new 0 0 467.6 319.4;" xml:space="preserve">
<style type="text/css">
	.st0{fill:none;stroke:#383536;stroke-width:4;stroke-miterlimit:10;}
</style>
<path class="st0" d="M432.4,47.5c-21.8-24-49.4-36-82.8-36c-5.8,0-11.7,0.5-17.5,1.5c-31.2,4.9-55.7,20-73.5,45.3V11.9h-57v16.6H241
	c-0.3,174.1-0.5,261.4-0.5,262.1H202V163.9c0-16.6-7.6-31.2-22.9-43.8c-20.8-17.2-47.1-25.8-78.9-25.8c-14.3,0-33,3.7-56,11.2
	l-28.7,11.2l6.8,16.6c31.5-14,57.5-20.9,78-20.9c20.8,0,39.5,4.9,56,14.6c18.5,10.7,27.8,23.1,27.8,37v8.3
	c-33.1-8.4-63.3-12.7-90.6-12.7c-19.2,0-36.5,5.1-52.1,15.1c-24.4,14.9-36.5,35.9-36.5,62.8c0,20.1,8,37.2,23.9,51.1
	c19.5,16.9,43.7,25.3,72.6,25.3c3.9,0,7.6-0.2,11.2-0.5c27.6-1.6,51.5-12.5,71.6-32.6v26.3h63.3v0h71.1v-16.6h-59.9V173.1
	c2.6,3.6,5.4,7,8.3,10.2c22.1,24.4,49.8,36.5,83.3,36.5c27.6,0,51.6-8.6,72.1-25.8c24.7-20.8,37-46.9,37-78.4
	C459.2,89.7,450.3,66.9,432.4,47.5z M184,253.5c-6.5,7.8-12.5,14.1-18,19c-17.2,15.6-38.8,23.4-64.8,23.4
	c-16.2,0-31.2-3.4-44.8-10.2c-22.4-11.4-33.6-27.4-33.6-48.2c0-13,4.4-24.7,13.1-35.1c14-16.6,33.1-24.8,57.5-24.8
	c26.3,0,56.5,4.4,90.6,13.2V253.5z M420.3,170.2c-18.5,21.1-42.1,31.7-70.6,31.7c-21.1,0-39.8-5.8-56-17.5
	c-23.4-16.9-35.1-39.8-35.1-68.7c0-21.4,7.1-40,21.4-55.5c18.5-20.5,41.9-30.7,70.2-30.7c22.1,0,41.4,6.7,58,20
	c22.1,17.2,33.1,39.3,33.1,66.2C441.2,136.1,434.2,154.3,420.3,170.2z"/>
</svg>
