<?xml version="1.0" encoding="utf-8"?>
<!-- Generator: Adobe Illustrator 22.0.1, SVG Export Plug-In . SVG Version: 6.00 Build 0)  -->
<svg version="1.1" id="Layer_1" xmlns="http://www.w3.org/2000/svg" xmlns:xlink="http://www.w3.org/1999/xlink" x="0px" y="0px"
	 viewBox="0 0 400 400" style="enable-background:new 0 0 400 400;" xml:space="preserve">
<style type="text/css">
	.st0{fill:#383536;}
	.st1{fill:#A4C486;}
</style>
<g>
	<g>
		<g>
			<g>
				<path class="st0" d="M178.6,297.2h32.2v11.8h-44.9v-18.7c-14.3,14.3-31.2,22-50.8,23.2c-2.5,0.2-5.2,0.3-8,0.3
					c-20.5,0-37.7-6-51.5-18c-11.3-9.9-16.9-22-16.9-36.3c0-19.1,8.6-34,25.9-44.6c11.1-7.1,23.4-10.7,37-10.7c19.4,0,40.8,3,64.3,9
					v-5.9c0-9.9-6.6-18.7-19.7-26.3c-11.8-6.9-25-10.4-39.8-10.4c-14.5,0-33,5-55.3,14.9l-4.8-11.8l20.4-8c16.4-5.3,29.6-8,39.8-8
					c22.6,0,41.3,6.1,56,18.3c10.8,9,16.3,19.4,16.3,31.1V297.2z M165.8,226.3c-24.2-6.2-45.6-9.3-64.3-9.3
					c-17.3,0-30.9,5.9-40.8,17.6c-6.2,7.4-9.3,15.7-9.3,24.9c0,14.8,8,26.2,23.9,34.2c9.7,4.8,20.3,7.3,31.8,7.3
					c18.4,0,33.8-5.5,46-16.6c3.9-3.5,8.2-8,12.8-13.5V226.3z"/>
			</g>
		</g>
		<g>
			<g>
				<path class="st0" d="M206.2,297.2c0-0.5,0.1-62.5,0.3-186h-28V99.4H219v32.8c12.7-18,30.1-28.7,52.2-32.2c4.2-0.7,8.3-1,12.4-1
					c23.7,0,43.3,8.5,58.8,25.6c12.7,13.8,19,30,19,48.4c0,22.4-8.8,40.9-26.3,55.7c-14.5,12.2-31.6,18.3-51.2,18.3
					c-23.7,0-43.5-8.6-59.1-25.9c-2.1-2.3-4-4.7-5.9-7.3v83.3h42.5v11.8h-82.6v-11.8H206.2z M283.7,234.3c20.3,0,37-7.5,50.1-22.5
					c9.9-11.3,14.9-24.2,14.9-38.7c0-19.1-7.8-34.8-23.5-47c-11.8-9.4-25.5-14.2-41.1-14.2c-20.1,0-36.7,7.3-49.8,21.8
					c-10.1,11.1-15.2,24.2-15.2,39.4c0,20.5,8.3,36.8,24.9,48.8C255.4,230.1,268.7,234.3,283.7,234.3z"/>
			</g>
		</g>
	</g>
	<g>
		<g>
			<g>
				<polygon class="st1" points="32.8,156.4 32.6,140.9 103.5,104.4 31.8,71.6 31.6,55.6 137,103.9 				"/>
			</g>
		</g>
	</g>
	<polygon class="st0" points="10.3,10.3 10.3,55.6 19.5,55.6 19.5,19.5 380.5,19.5 380.5,380.5 19.5,380.5 19.5,156.4 10.3,156.4 
		10.3,389.7 389.7,389.7 389.7,10.3 	"/>
</g>
</svg>
